<?xml version="1.0" encoding="utf-8"?>
<!-- Generator: Adobe Illustrator 17.1.0, SVG Export Plug-In . SVG Version: 6.00 Build 0)  -->
<!DOCTYPE svg PUBLIC "-//W3C//DTD SVG 1.1//EN" "http://www.w3.org/Graphics/SVG/1.1/DTD/svg11.dtd">
<svg version="1.1" id="Warstwa_1" xmlns="http://www.w3.org/2000/svg" xmlns:xlink="http://www.w3.org/1999/xlink" x="0px" y="0px"
	 viewBox="0 0 409.6 409.6" enable-background="new 0 0 409.6 409.6" xml:space="preserve">
<g>
	<path d="M0.8,46.4C4.4,36,11.9,32.3,22.5,32.8c7.3,0.4,14.7,0,22,0.1c4.8,0,7.5,2.3,7.5,6c0,3.7-2.7,6-7.4,6c-8.3,0-16.5,0-24.8,0
		c-5.3,0-7,1.7-7,6.9c0,81.2,0,162.4,0,243.6c0,5.7,1.6,7,8.1,7c103.3,0,206.7,0,310,0c1.3,0,2.7,0,4,0c4.4,0.2,6.9,2.4,6.8,6.1
		c-0.1,3.5-2.6,5.8-6.7,5.8c-9.9,0.1-19.7,0-29.6,0c-1.6,0-3.2,0-5.4,0c0,3.3,0,6.4,0,9.5c0,12.5-4.9,17.3-17.5,17.3
		c-17.1,0-34.1,0-51.2,0c-1.4,0-2.9,0-5,0c0.9,1.9,1.5,3.1,2.2,4.4c8.2,16,16.4,32,24.6,48c0.7,1.3,1.8,2.8,1.6,4
		c-0.4,2.3-1.1,5-2.6,6.4c-2.1,1.9-5.1,1.4-7.2-0.9c-1-1.2-1.8-2.7-2.5-4.1c-9.3-18.1-18.7-36.2-27.8-54.4c-1.3-2.7-2.9-3.5-5.8-3.5
		c-19.5,0.1-38.9,0.1-58.4,0c-2.9,0-4.5,0.8-5.8,3.5c-9.1,18.2-18.5,36.3-27.8,54.4c-0.6,1.2-1.2,2.4-2,3.5c-2,2.7-4.7,3.1-7.5,1.8
		c-2.8-1.4-3.9-3.9-2.9-7.1c0.4-1.3,1-2.4,1.7-3.6c8.2-16,16.4-32,24.6-48c0.6-1.2,1.1-2.4,2-4.1c-1.8-0.1-3.2-0.2-4.5-0.2
		c-17.3,0-34.7,0-52,0c-12,0-16.9-4.9-16.9-17.1c0-3.1,0-6.1,0-9.8c-1.6,0-3,0-4.4,0c-10.8,0-21.6-0.3-32.4,0.1
		c-10.6,0.4-18.1-3.3-21.6-13.7C0.8,216,0.8,131.2,0.8,46.4z M71.2,314.6c0,3,0,5.8,0,8.6c0,6.1,0,6.2,6,6.2c68.1,0,136.3,0,204.4,0
		c1.3,0,2.8,0.2,4-0.2c0.9-0.3,2.2-1.4,2.2-2.2c0.2-4.1,0.1-8.2,0.1-12.4C215.5,314.6,143.7,314.6,71.2,314.6z"/>
	<path d="M410.4,323.2c-1.3,2.9-2.2,6.1-4,8.6c-9.7,14.3-29.5,13.7-38.6-1.1c-6.6-10.8-12.7-21.9-19-32.8
		c-4.7-8.1-9.4-16.1-13.9-24.2c-1.1-1.9-2.1-2.4-4.4-2c-39.2,6.7-74.1-13.1-88.5-50c-14.8-38,5.3-84,43.3-99.2
		c42.2-16.8,87.9,2.7,103.7,45.4c10.1,27.1,5.3,52.6-12.2,75.7c-1,1.4-2.2,2.7-3.3,4c-0.2,0.2-0.3,0.5-0.5,1c0.9,1.7,1.9,3.6,3,5.4
		c8.8,15.3,17.8,30.6,26.5,46c2.9,5.2,5.2,10.7,7.8,16C410.4,318.4,410.4,320.8,410.4,323.2z M315.7,128.4
		c-36.6-0.3-66,29.2-66.4,66.7c-0.4,36.2,29.3,65.6,66.6,66c36.3,0.4,65.8-29.5,66.1-67.1C382.4,158.6,352.2,128.8,315.7,128.4z
		 M345.4,267.5c0.5,1.1,0.9,1.9,1.4,2.7c10.2,17.8,20.5,35.5,30.7,53.2c3.1,5.3,7.3,7.6,12,6.6c7.9-1.6,11.1-9.5,6.8-17.2
		c-9.5-16.6-19.1-33.2-28.7-49.8c-1.2-2.1-2.4-4.1-3.7-6.4c-3.1,2.1-5.9,4.1-8.9,5.8C351.9,264.3,348.7,265.8,345.4,267.5z"/>
	<path d="M110.6,149.5c6.7-3.8,13.2-7.3,19.6-11.2c1-0.6,1.9-2.5,1.8-3.7c-0.1-12.4,8.6-21.8,20.2-21.6c11.5,0.2,20,9.6,19.7,21.7
		c0,1.3,0.9,3.1,1.9,3.7c6.4,3.9,12.9,7.4,19.5,11.1c5.5-4.2,11.4-6.2,18.4-4.8c0.9,0.2,2.5-0.8,3.1-1.7
		c10-13.8,19.9-27.7,29.9-41.5c1.4-2,0.7-3.3-0.2-5c-3.5-7.2-3.2-14.3,1.5-20.8c4.7-6.5,11.3-9.4,19.2-8.1c8,1.3,13.5,6.1,16,13.9
		c4.4,14-7.8,27.9-22.2,25.4c-2.7-0.5-3.8,0.3-5.1,2.2c-9.6,13.5-19.2,26.9-28.8,40.3c-1.2,1.7-1.8,3-0.5,5.2
		c4.3,7.6,3.1,16.5-2.7,23c-5.3,6-14.4,8.1-22,5.1c-7.9-3.1-12.9-10.6-12.5-19.5c0.1-2.7-0.8-4-3.1-5.2c-5.3-2.8-10.5-5.8-15.6-8.9
		c-1.9-1.1-3.2-1.4-5.3,0c-7.4,5-15,5-22.4,0.1c-2-1.4-3.4-1.3-5.3-0.2c-5.1,3.1-10.3,6.1-15.6,8.9c-2.5,1.3-3.2,2.8-3.1,5.6
		c0.4,10-6.7,18.6-16.3,20.3c-9.8,1.7-19.6-4.2-22.5-13.7c-2.9-9.4,1.4-19.6,10.3-23.9C96.1,142.5,103.5,144,110.6,149.5z
		 M159.9,133.1c0.1-4.2-3.6-8-7.8-8.1c-4.2-0.1-8,3.6-8.1,7.8c-0.1,4.2,3.5,8,7.8,8C156.1,140.9,159.8,137.3,159.9,133.1z
		 M254.3,86.8c-0.2,4.4,3,8.1,7.4,8.4c4.2,0.3,8-3.2,8.3-7.5c0.3-4.3-3.1-8.1-7.4-8.4C258.4,79,254.5,82.5,254.3,86.8z M207.1,172.1
		c4.3,0,7.9-3.7,7.9-7.9c0-4.2-3.8-7.9-8-7.9c-4.2,0-7.9,3.7-7.8,8C199.2,168.6,202.7,172.1,207.1,172.1z M97,156.2
		c-4.1-0.1-8,3.7-8,7.9c-0.1,4.2,3.6,7.9,7.9,7.9c4.3,0,7.9-3.5,8-7.8C104.9,160.1,101.2,156.3,97,156.2z"/>
	<path d="M212.8,32.9c1.9,0,3.5,0,5.1,0c40,0,80,0,120,0c13.8,0,20.4,6.5,20.4,20.3c0,16.8,0,33.6,0,50.4c0,1.2,0.1,2.4-0.1,3.6
		c-0.6,3.4-2.4,5.6-6.1,5.7c-3.3,0-5.6-2.5-5.8-6.3c-0.1-1.1,0-2.1,0-3.2c0-16.8,0-33.6,0-50.4c0-6.5-1.5-8-8-8c-88,0-176,0-264,0
		c-1.6,0-3.2,0.1-4.8-0.1c-3.2-0.4-5.1-2.4-5.3-5.6c-0.2-3.2,1.6-5.3,4.7-6c1.4-0.3,2.9-0.3,4.4-0.3c22.7,0,45.3,0,68,0
		c1.5,0,2.9,0,5,0c0-3.6,0-7,0-10.5c0.1-10.2,5.9-16.2,16.1-16.3c11.5-0.1,22.9-0.1,34.4,0c10.1,0.1,15.9,6.3,16,16.4
		C212.8,25.9,212.8,29.2,212.8,32.9z M158.3,32.6c14.4,0,28.3,0,42.5,0c0-3.8,0.3-7.4-0.2-10.9c-0.2-1.3-2.1-3.3-3.3-3.4
		c-11.8-0.3-23.7-0.3-35.5,0c-1.2,0-3.2,2-3.3,3.3C158,25.1,158.3,28.7,158.3,32.6z"/>
	<path d="M133.7,231.6c0-12.9,0-25.9,0-38.8c0-6.6,2-8.6,8.6-8.7c6.7,0,13.3-0.1,20,0c5.6,0.1,7.9,2.2,7.9,7.7
		c0.1,26.8,0.1,53.6,0,80.4c0,5.4-2.3,7.6-7.6,7.6c-7.1,0.1-14.1,0.1-21.2,0c-5.5-0.1-7.6-2.3-7.7-7.9
		C133.7,258.5,133.7,245.1,133.7,231.6z M146,196.3c0,24,0,47.6,0,71.3c4.1,0,8,0,11.9,0c0-23.9,0-47.6,0-71.3
		C153.9,196.3,150.2,196.3,146,196.3z"/>
	<path d="M225.2,247.6c0,8.1,0.1,16.3,0,24.4c-0.1,5.9-2.2,7.9-8,7.9c-6.9,0-13.9,0.1-20.8,0c-5.3-0.1-7.5-2.3-7.6-7.6
		c0-16.6,0-33.3,0-49.9c0-5.2,2.1-7.4,7.2-7.4c7.2-0.1,14.4-0.1,21.6,0c5.5,0.1,7.5,2,7.5,7.5C225.3,230.8,225.2,239.2,225.2,247.6z
		 M213,267.7c0-13.6,0-26.9,0-40.5c-4.1,0-8,0-11.9,0c0,13.7,0,27,0,40.5C205.2,267.7,209,267.7,213,267.7z"/>
	<path d="M115.1,247.6c0,8,0,16,0,24c0,6.3-2.1,8.3-8.5,8.3c-6.7,0-13.3,0-20,0c-5.7,0-7.9-2.1-8-7.6c-0.1-16.7-0.1-33.3,0-50
		c0-5.4,2.2-7.4,7.6-7.5c6.8-0.1,13.6-0.1,20.4,0c6.4,0,8.4,2,8.4,8.3C115.2,231.4,115.1,239.5,115.1,247.6z M90.9,267.7
		c4.3,0,8.1,0,11.9,0c0-13.6,0-27,0-40.5c-4.1,0-7.9,0-11.9,0C90.9,240.7,90.9,254.1,90.9,267.7z"/>
	<path d="M256,268c5.9,0,11.4,0,16.8,0c4.8,0,7.4,2.2,7.4,5.9c0,3.7-2.6,6-7.3,6c-7.2,0.1-14.4,0.1-21.5,0c-5.1-0.1-7.2-2.3-7.3-7.4
		c-0.1-5.1-0.1-10.1,0-15.2c0.1-4.4,2.4-7,6-7c3.6,0,5.9,2.6,6,7C256,260.7,256,264,256,268z"/>
	<path d="M313,137.9c14.8,0.1,26,3.8,36.1,10.9c3.3,2.3,4.1,5.7,2.3,8.6c-1.9,2.9-5.3,3.7-8.8,1.3c-8.6-5.9-18-9.1-28.5-8.8
		c-23.5,0.8-42.3,19.6-43.4,43.4c-1,23.1,16.5,43.3,39.6,46c33.3,3.8,58.7-28.2,47.4-59.9c-0.6-1.6-1.3-3.2-1.6-4.9
		c-0.7-3.3,0.6-5.9,3.8-7c3.3-1.1,5.9,0.2,7.3,3.2c4.1,8.4,6,17.4,5.3,26.7c-2.1,27.7-19.7,47.6-47,53.3
		c-30.8,6.4-63.4-17.6-66.4-48.9c-2.8-29.6,13.4-53.7,42.1-62C305.8,138.6,310.6,138.3,313,137.9z"/>
</g>
</svg>
