<?xml version="1.0" encoding="utf-8"?>
<!-- Generator: Adobe Illustrator 17.1.0, SVG Export Plug-In . SVG Version: 6.00 Build 0)  -->
<!DOCTYPE svg PUBLIC "-//W3C//DTD SVG 1.1//EN" "http://www.w3.org/Graphics/SVG/1.1/DTD/svg11.dtd">
<svg version="1.1" id="Warstwa_1" xmlns="http://www.w3.org/2000/svg" xmlns:xlink="http://www.w3.org/1999/xlink" x="0px" y="0px"
	 viewBox="0 0 384 384" enable-background="new 0 0 384 384" xml:space="preserve">
<path d="M318.9,282.7c0-4.1,0-7.8,0-12c6.1,0,12.1,0.1,18.2,0c3.4-0.1,6.8,0.1,10-0.7c8.7-2,14.3-10.2,13.5-19
	c-0.8-8.9-8.3-16-17.3-16.2c-5.6-0.2-11.2,0-16.9-0.1c-5.8,0-7.8-2-7.8-7.9c0-53.7,0-107.5,0-161.2c0-1.5,0-2.9,0-4.6
	c-84,0-167.7,0-252,0c0,1.3,0,2.8,0,4.2c0,53.5,0,107,0,160.5c0,7.6-1.6,9.1-9.3,9.1c-5,0-10-0.1-15,0c-10,0.2-17.8,8.2-17.7,18.1
	c0,9.7,7.8,17.6,17.6,17.9c4,0.1,8,0,12.2,0c0,4,0,7.8,0,12.5c-6.7-0.5-13.4-0.3-19.7-1.8c-13.4-3.2-22-15.2-22-29.4
	c0-39,0-78,0-117c0-28.1,0-56.2,0-84.4c0-19.3,12.7-31.9,31.9-31.9c5,0,10,0,15,0c4.9,0.1,7,2.2,7.1,7.2c0.1,7.4,0.1,14.7,0.1,22.1
	c0,0.1,0.1,0.2,0.4,0.5c83.5,0,167.2,0,251.5,0c0-3.9,0-8,0-12.1c0-3.9-0.1-7.8,0-11.6c0.1-3.5,2-5.9,5.5-6c8-0.1,16.1-0.5,23.9,0.6
	c14.2,2.1,24.3,14.4,24.5,28.9c0.2,15.2,0,30.5,0,45.7c0,52,0,104,0,156c0,20.3-12.4,32.6-32.7,32.6
	C333,282.7,326,282.7,318.9,282.7z M54.6,30.7c-3.9,0-7.4,0-10.9,0c-11.4,0.1-19,7.6-19,19.1c0,58.4,0,116.7,0,175.1
	c0,1,0.1,2.1,0.3,3.7c9.1-7.2,19.5-5.8,29.6-6C54.6,158.6,54.6,94.9,54.6,30.7z M331,30.8c0,64.2,0,128,0,192
	c10.3-0.1,20.6-1,29.7,6c0-2.1,0-3.5,0-4.9c0-55.1,0-110.2,0-165.4c0-3.5,0.1-7,0-10.5c-0.4-9.1-7.6-16.7-16.7-17.2
	C339.7,30.6,335.5,30.8,331,30.8z"/>
<path d="M156.6,263.6c0-11.4,1.6-19.6-0.5-26.8c-2-7-7.9-12.9-12-19.2c-16.4-25.1-15.3-55.4,3.5-76.3c16.8-18.7,38.1-25.1,62.2-17.9
	c24.2,7.3,38.4,24.3,42.2,49.4c2.3,14.9-1.1,28.8-8.8,41.6c-4,6.6-8.6,12.9-12.7,19.4c-1,1.7-1.8,3.9-1.8,5.8
	c-0.2,13.6,0,27.2-0.2,40.8c0,2.3-0.6,4.7-1.6,6.8c-3.2,6.9-6.9,13.6-10.1,20.5c-1.6,3.5-4,5-7.9,5c-10.9-0.1-21.7-0.1-32.6,0
	c-3.9,0-6.5-1.4-7.9-5c-0.3-0.7-0.6-1.4-1-2C158.9,291.7,153.6,276.8,156.6,263.6z M212,229.2c3.2-0.6,7.1-0.2,8.1-1.7
	c6.1-9,12.7-17.8,16.8-27.7c7.8-18.9,4.8-37-9.6-52c-13.5-14.1-30.3-18.4-49.1-12.6c-30.3,9.3-42.8,45-25.8,73.1
	c3.4,5.5,7.1,10.9,10.7,16.3c3.3,4.9,4,5.2,10.2,3.7c-3.3-16.7-6.6-33.5-10-50.2c-0.7-3.3-0.7-6.3,2.4-8.3c3.1-1.9,5.7-0.5,8.2,1.4
	c6.2,4.8,12.5,9.4,18.9,14.1c6.5-4.9,12.9-9.6,19.1-14.3c2.6-2,5.2-3.1,8.2-1.1c2.8,1.9,2.9,4.6,2.3,7.7
	C218.9,194.3,215.5,211.2,212,229.2z M168.9,240.9c0,12.1,0,23.8,0,35.6c16,0,31.8,0,47.5,0c0-12,0-23.8,0-35.6
	C200.5,240.9,184.8,240.9,168.9,240.9z M177.7,189c2.5,12.6,5,24.2,7,35.8c0.6,3.4,2,4.4,5.1,4c0.6-0.1,1.2,0,1.9,0
	c8,0,8.1,0,9.7-7.9c2.1-10.3,4.1-20.7,6.4-31.9c-4,3-7.3,5.4-10.5,7.9c-3,2.3-5.9,2.4-8.9,0C185.1,194.4,181.8,192,177.7,189z
	 M212.9,288.9c-13.6,0-26.7,0-40.3,0c1.8,3.7,3.4,7.1,5.2,10.3c0.5,0.8,1.9,1.4,3,1.5c8,0.1,16,0.1,24,0c1,0,2.5-0.7,3-1.5
	C209.5,296,211.1,292.6,212.9,288.9z"/>
<path d="M258.7,264.3c0-21.1,0-42.2,0-63.3c0-6.4,1.9-8.2,8.2-8.3c10.7,0,21.5,0,32.2,0c5.4,0,7.5,2.1,7.5,7.5c0,43,0,86-0.1,128.9
	c0,2-0.6,4.2-1.7,6c-5.3,9.2-10.8,18.3-16.3,27.3c-3.5,5.7-8.4,5.7-11.9,0c-5.5-9.1-11-18.1-16.3-27.3c-1.1-1.9-1.7-4.5-1.7-6.7
	C258.7,307.1,258.7,285.7,258.7,264.3z M276.5,324.5c0-25.9,0-51.7,0-77.6c-2,0-3.8,0-5.5,0c0,26,0,51.8,0,77.6
	C272.9,324.5,274.6,324.5,276.5,324.5z M294.5,324.5c0-26.1,0-51.8,0-77.7c-2,0-3.7,0-5.6,0c0,25.9,0,51.7,0,77.7
	C290.8,324.5,292.5,324.5,294.5,324.5z M294.5,205c-8.1,0-15.9,0-23.5,0c0,4.1,0,7.8,0,11.5c8,0,15.7,0,23.5,0
	C294.5,212.6,294.5,208.9,294.5,205z M294.5,229c-8.1,0-15.8,0-23.5,0c0,2,0,3.8,0,5.6c8,0,15.7,0,23.5,0
	C294.5,232.7,294.5,231,294.5,229z M282.7,349c2.6-4.3,4.8-8.1,7.2-12c-5,0-9.5,0-14.4,0C278,341.1,280.2,344.8,282.7,349z"/>
<path d="M76.5,366.7c-14.6,0-29.2,0-43.9,0c-8.7,0-15.5-4.2-18.4-11.6C11,347,13,340,19.1,333.9c28.5-28.5,57.1-57.1,85.6-85.6
	c7.5-7.5,17.1-9.7,26-5.7c9.5,4.3,14,12,14,22.3c0,25.4,0,50.7,0,76.1c0,15.5-10.1,25.6-25.5,25.7C105,366.7,90.7,366.7,76.5,366.7z
	 M132.7,270.8c0-3.1,0.3-5.8-0.1-8.3c-0.5-4.4-3-7.6-7.3-9.1c-5-1.7-8.9,0.2-12.5,3.7c-28.2,28.3-56.5,56.6-84.8,84.8
	c-0.6,0.6-1.3,1.2-1.8,1.9c-3.1,4.1-1,10.2,4.1,10.7c6,0.5,12.1,0.1,18.6,0.1c0-4.2,0-8,0-11.7c4.1,0,7.8,0,11.9,0c0,4,0,7.8,0,11.5
	c4.2,0,8,0,12.1,0c0-4,0-7.7,0-11.4c4.1,0,7.9,0,12.1,0c0,4.1,0,7.8,0,11.5c4.1,0,7.8,0,11.9,0c0-4,0-7.8,0-11.6c4.1,0,7.8,0,11.9,0
	c0,4,0,7.8,0,11.8c4.6,0,8.9,0.2,13.1-0.1c5.2-0.3,9.9-4.4,10.5-9.6c0.5-4.6,0.1-9.4,0.1-14.5c-4.1,0-7.9,0-11.6,0
	c0-4.1,0-7.8,0-11.9c4,0,7.8,0,11.5,0c0-4.2,0-8,0-12.1c-4,0-7.7,0-11.4,0c0-4.1,0-7.9,0-12.1c4.1,0,7.9,0,11.5,0
	c0-4.1,0-7.8,0-11.9c-4,0-7.8,0-11.6,0c0-4.1,0-7.8,0-11.8C124.8,270.8,128.5,270.8,132.7,270.8z"/>
<path d="M125.6,115.2c2.5-2.5,5.3-5.1,7.8-7.6c3.9,3.9,8,8,12.1,12.2c-2.5,2.5-5.2,5.2-7.6,7.7C133.7,123.3,129.6,119.2,125.6,115.2
	z"/>
<path d="M247.5,127.5c-2.4-2.5-5.1-5.2-7.6-7.7c4.1-4.1,8.2-8.2,12.2-12.3c2.5,2.5,5.1,5.3,7.7,7.9
	C255.9,119.3,251.8,123.4,247.5,127.5z"/>
<path d="M186.9,84.9c3.8,0,7.5,0,11.5,0c0,5.7,0,11.5,0,17.6c-3.7,0-7.5,0-11.5,0C186.9,96.7,186.9,90.9,186.9,84.9z"/>
<path d="M120.5,180.6c-5.9,0-11.6,0-17.5,0c0-3.8,0-7.6,0-11.6c5.8,0,11.6,0,17.5,0C120.5,172.8,120.5,176.5,120.5,180.6z"/>
<path d="M282.5,180.6c-5.8,0-11.5,0-17.5,0c0-3.8,0-7.5,0-11.6c5.7,0,11.5,0,17.5,0C282.5,172.7,282.5,176.4,282.5,180.6z"/>
<path d="M108.7,309.6c0,4.7,0.1,9.5,0,14.2c-0.1,4.6-2.3,6.8-7,6.9c-9.4,0.1-18.7,0-28.1,0c-3,0-5.4-1-6.5-4c-1.1-2.8,0.1-5,2.1-7
	c9.5-9.5,19.1-19,28.6-28.6c2-2,4.2-3.1,7.1-2c2.9,1.2,3.9,3.6,3.9,6.6C108.7,300.4,108.7,305,108.7,309.6z M88.3,318.5
	c2.7,0,5.4,0,8.1,0c0-3,0-5.7,0-7.8C93.8,313.2,91.1,315.8,88.3,318.5z"/>
</svg>
