<?xml version="1.0" encoding="utf-8"?>
<!-- Generator: Adobe Illustrator 17.1.0, SVG Export Plug-In . SVG Version: 6.00 Build 0)  -->
<!DOCTYPE svg PUBLIC "-//W3C//DTD SVG 1.1//EN" "http://www.w3.org/Graphics/SVG/1.1/DTD/svg11.dtd">
<svg version="1.1" id="Warstwa_1" xmlns="http://www.w3.org/2000/svg" xmlns:xlink="http://www.w3.org/1999/xlink" x="0px" y="0px"
	 viewBox="0 0 383.9 384" enable-background="new 0 0 383.9 384" xml:space="preserve">
<path d="M343.5,384c-84,0-168,0-252,0c-21.1-4.9-27.9-20.4-27.7-39c0.5-78.3,0.2-156.7,0.2-235c0-1.1,0.1-2.3,0-3.4
	c-0.4-3-4.1-5.5-6.9-4.7c-7.3,2.1-13.9,0.8-19.4-4.7C32.1,91.7,31,85,33,77.5c0.3-1.1-0.1-2.9-0.9-3.8c-2.9-3.3-6.2-6.2-9.1-9.4
	C3.1,42.4,13.8,7.8,42.6,1.1c1.3-0.3,2.6-0.7,3.9-1.1c3,0,6,0,9,0C62,2.4,68.6,4.7,74.6,6.9C80.1,4.6,85.8,2.3,91.5,0
	C148,0,204.5,0,261,0c5.8,1.8,10,5.8,14.1,10c29.5,29.6,58.9,59.1,88.5,88.5c5.2,5.2,7.6,11,7.6,18.4c-0.1,54.1-0.1,108.2-0.1,162.3
	c0,24.1,0.1,48.2,0,72.4c0,14.1-8.4,25.9-21.3,30.5C347.8,382.8,345.6,383.3,343.5,384z M77,118.4c-0.1,2.1-0.2,3.2-0.2,4.3
	c0,75.7,0,151.5,0,227.2c0,13.6,7.8,21.3,21.4,21.3c79.6,0,159.2,0,238.8,0c13.6,0,21.4-7.8,21.4-21.4c0-76.7,0-153.5,0-230.2
	c0-1.3,0-2.7,0-4.3c-2,0-3.5,0-4.9,0c-21,0-42,0-63,0c-3.2,0-6.5-0.2-9.7-0.9c-15.3-3.6-24.8-16.1-24.9-32.7
	c-0.1-21.4,0-42.7,0-64.1c0-1.5,0-2.9,0-4.7c-3.2,0-5.9,0-8.7,0c-49.9,0-99.7,0-149.6,0c-4.8,0-9.3,0.8-13.1,4.1c3,4,3,4,7.2,2.9
	c14.1-3.7,27.1,9.4,23.1,23.4c-0.8,2.8-0.2,4.4,1.8,6.4C141.2,74,166,98.1,190,123.1c14.7,15.3,21.6,34.4,20.4,55.7
	c-0.3,5.8-0.9,10.2,4.1,14.2c2.6,2.1,1.9,6.1-0.5,8.4c-2.4,2.3-5.7,2.5-8.5,0.3c-0.9-0.7-1.8-1.4-2.4-2.3c-2.1-3-4.5-3.6-8-2.2
	c-2.1,0.8-4.7,1-7,0.9c-20.4-0.9-38.7-7.8-53.5-22c-14.4-13.7-28.2-28-42.2-42.1C87.5,129,82.6,124.1,77,118.4z M105.7,57.6
	C94,69.3,82.1,81.3,70.7,92.7c23.6,23.6,47.6,47.6,71.2,71.3c11.6-11.6,23.5-23.5,35.2-35.1C153.3,105.2,129.3,81.2,105.7,57.6z
	 M268.8,22.9c0,1.3,0,2.6,0,3.9c0,17.9,0,35.7,0,53.6c0,14.4,7.6,22,21.9,22c18,0,36,0,54,0c1.2,0,2.4-0.1,3.4-0.2
	C321.7,75.9,295.3,49.5,268.8,22.9z M78.3,29.1c-4-3.8-7.6-7.8-11.8-11.1c-8.3-6.6-19.8-6.9-28.8-1.3C28.8,22.2,24.4,32.5,26,42.8
	c1.6,10.3,9.5,15.9,16,22.5C54.2,53.2,66,41.4,78.3,29.1z M186.8,139.1c-11.7,11.7-23.2,23.2-34.9,34.9c10.9,6.2,22.5,11,35.5,11.4
	c8.3,0.3,11.2-2.7,10.8-11C197.7,161.5,192.9,149.9,186.8,139.1z M52.4,90c1-0.7,3.1-1.7,4.7-3.3c14.2-14.1,28.3-28.2,42.4-42.3
	c0.8-0.8,2.1-1.6,2.2-2.5c0.3-2.3,0.8-5,0-7c-1.1-2.7-3.9-3.5-6.7-2.6c-1.6,0.5-3.1,1.6-4.3,2.8C76.5,49.3,62.3,63.5,48.1,77.7
	c-0.9,0.9-1.8,1.8-2.4,2.9C43.3,84.8,46.4,89.9,52.4,90z"/>
<path d="M179.2,313.5c-22.5,0-45,0-67.4,0c-1.1,0-2.3,0.1-3.4-0.1c-3.5-0.3-5.8-2.8-5.9-6.1c-0.1-3.3,2.1-6,5.5-6.5
	c1.2-0.2,2.5-0.1,3.7-0.1c45,0,89.9,0,134.9,0c1.1,0,2.3-0.1,3.4,0.1c3.6,0.4,6,3,5.9,6.5c-0.1,3.5-2.5,6-6.2,6.1
	c-3.5,0.1-7,0-10.5,0C219.2,313.5,199.2,313.5,179.2,313.5z"/>
<path d="M179.1,224c22.4,0,44.7,0,67.1,0c1.4,0,2.8-0.1,4.1,0.1c3.3,0.4,5.2,2.3,5.5,5.6c0.3,3.3-1.2,5.6-4.3,6.6
	c-1.4,0.4-2.9,0.5-4.4,0.5c-45.2,0-90.4,0-135.6,0c-1.6,0-3.3-0.1-4.8-0.6c-3.1-1.1-4.5-3.5-4-6.7c0.4-3.1,2.3-4.9,5.4-5.3
	c1.4-0.2,2.7-0.1,4.1-0.1C134.4,224,156.8,224,179.1,224z"/>
<path d="M179.2,249.6c22.5,0,45,0,67.4,0c1.2,0,2.5-0.1,3.7,0.1c3.1,0.4,5,2.2,5.4,5.3c0.4,3.2-0.9,5.7-4,6.8
	c-1.6,0.5-3.4,0.6-5.1,0.6c-45,0-89.9,0-134.9,0c-1.1,0-2.3,0.1-3.4-0.1c-3.6-0.4-6-3.1-5.9-6.5c0.1-3.5,2.5-6,6.2-6.1
	c5.1-0.1,10.2-0.1,15.4-0.1C142.5,249.6,160.8,249.6,179.2,249.6z"/>
<path d="M179.1,339.1c-22.4,0-44.7,0-67.1,0c-1.4,0-2.8,0.1-4.1-0.1c-3.1-0.5-4.9-2.3-5.3-5.4c-0.4-3.2,1-5.7,4.1-6.7
	c1.4-0.5,2.9-0.5,4.4-0.5c45.3,0,90.7,0,136,0c1.4,0,2.8,0,4.1,0.4c3.3,1,4.9,3.3,4.6,6.8c-0.3,3.3-2.3,5.2-5.6,5.6
	c-1.2,0.2-2.5,0.1-3.7,0.1C224,339.1,201.6,339.1,179.1,339.1z"/>
<path d="M316,320.1c5,4.8,9.8,9.4,14.4,14.1c2.9,2.9,3.1,6.4,0.8,9.1c-2.6,3-6.6,3.1-9.9-0.2c-4.6-4.5-9.1-9.2-14.1-14.2
	c-4.7,4.8-9.1,9.5-13.9,13.8c-1.7,1.5-4.4,2.8-6.5,2.6c-1.7-0.1-4.3-2.3-4.7-4c-0.5-2,0.2-5.1,1.6-6.7c3.5-4.2,7.6-7.9,11.5-11.8
	c0.9-0.9,1.7-1.8,2.9-3.1c-4.3-4.2-8.5-8.3-12.6-12.4c-0.9-0.9-1.8-1.7-2.5-2.7c-2-2.7-1.6-6.3,0.8-8.5c2.4-2.2,5.9-2.3,8.5,0
	c3.4,3.1,6.6,6.4,9.9,9.7c1.6,1.6,3.1,3.3,5,5.3c4.9-5,9.6-9.7,14.2-14.4c2.5-2.5,5.4-3.2,8.5-1.3c3.7,2.2,4,6.8,0.6,10.3
	C325.8,310.5,321.1,315,316,320.1z"/>
<path d="M316.1,172.8c4.8,4.7,9.3,9.1,13.7,13.5c3.6,3.6,3.8,7.4,0.9,10.2c-2.7,2.6-6.5,2.2-9.9-1.1c-4.4-4.4-8.8-8.8-13.6-13.7
	c-4.8,4.9-9.4,9.6-14.1,14.2c-2.9,2.9-6.4,3.2-9.1,1c-3.1-2.5-3.2-6.6-0.1-9.8c4.6-4.7,9.4-9.3,14.3-14.3c-4.7-4.6-9.1-9-13.5-13.4
	c-3.6-3.6-4-7.3-1.2-10.2c2.9-2.9,6.5-2.5,10.2,1.1c4.4,4.4,8.7,8.9,13.4,13.7c4.9-5,9.5-9.8,14.2-14.4c3.4-3.4,8.1-3,10.3,0.7
	c1.9,3.1,1.1,6-1.4,8.5C325.7,163.3,321.1,167.9,316.1,172.8z"/>
<path d="M296.1,253.5c7.1-7.5,14.2-14.9,21.2-22.4c3.4-3.6,6.8-7.3,10.3-10.9c3.2-3.3,6.8-3.6,9.6-0.9c2.7,2.6,2.7,6.5-0.3,9.6
	c-11.6,12.4-23.3,24.8-35,37.1c-3.3,3.5-6.6,3.5-10.2,0.5c-4.6-3.9-9.1-7.8-13.7-11.7c-3.3-2.9-3.8-6.7-1.4-9.5
	c2.5-3,6.1-3.1,9.6-0.2C289.4,247.8,292.6,250.6,296.1,253.5z"/>
</svg>
