<?xml version="1.0" encoding="utf-8"?>
<!-- Generator: Adobe Illustrator 17.1.0, SVG Export Plug-In . SVG Version: 6.00 Build 0)  -->
<!DOCTYPE svg PUBLIC "-//W3C//DTD SVG 1.1//EN" "http://www.w3.org/Graphics/SVG/1.1/DTD/svg11.dtd">
<svg version="1.1" id="Warstwa_1" xmlns="http://www.w3.org/2000/svg" xmlns:xlink="http://www.w3.org/1999/xlink" x="0px" y="0px"
	 viewBox="0 0 384 383.2" enable-background="new 0 0 384 383.2" xml:space="preserve">
<path d="M328.5,0c1.5,0.5,3.1,1,4.6,1.5c11.2,4,18.3,15.2,17.1,27c-1.2,11.5-10.4,21-21.8,22.6c-12.1,1.7-23.4-4.6-27.6-15.9
	c-1.2-3.2-2.7-4-5.9-3.9c-6,0.3-12,0.1-18,0.1c-2,0-3.4,0.4-3.4,2.9c0.1,23.2,0.1,46.5,0.1,69.7c0,0.2,0.2,0.4,0.4,1.1
	c7.8,0,15.8,0.1,23.7-0.1c0.9,0,2-1.8,2.5-3c4-9.6,10.9-15.4,21.2-16.7c9.7-1.2,17.8,2.3,23.6,10.2c6.4,8.6,7.1,18.1,1.9,27.5
	c-5.1,9.4-13.5,14.1-24.2,13.4c-10.6-0.7-18.4-6.3-22.2-16.4c-1.2-3.1-2.7-3.8-5.7-3.7c-7,0.2-14,0.1-21.3,0.1
	c-0.1,1.4-0.2,2.6-0.2,3.8c0,21.7,0.1,43.5-0.1,65.2c0,3.6,1,4.8,4.7,4.7c6-0.3,12-0.2,18,0c2.3,0.1,3.4-0.6,4.3-3
	c4.4-12,16-18.7,28.5-16.7c11.8,1.9,21,12.6,21.3,24.6c0.3,12.6-8.1,23.2-20.6,26c-12,2.6-24.6-4.1-28.9-15.9
	c-1.1-3.1-2.7-3.8-5.7-3.7c-6,0.2-12,0.1-18,0c-9.8-0.1-14.8-5.1-14.8-14.8c0-22.2,0-44.5,0-66.7c0-1-0.1-2-0.2-3.2
	c-11.1,0-22,0-33.1,0c-0.9,7.3-5.4,11.1-12.5,11.2c-6.8,0.1-10.1,2.9-11.5,9.6c-0.8,4-3.1,7.9-5.2,11.6c-1.2,2.1-1.1,3.5,0.4,5.3
	c1.9,2.2,3.5,4.5,5.1,6.9c3.3,4.9,2.9,10.1-1.1,14.4c-2.6,2.8-5.4,5.6-8.2,8.2c-4.3,3.9-9.5,4.2-14.4,1c-1.7-1.1-3.2-2.3-4.8-3.5
	c-1.5-1.1-3-2.2-3.9-2.9c-7.4,2.9-14.4,5.5-21.3,8.3c-1,0.4-1.9,1.8-2.1,2.9c-0.7,3-0.9,6.2-1.5,9.2c-1.2,5.7-4.8,9-10.6,9.3
	c-4,0.3-8,0.2-12,0c-5.9-0.4-9.5-3.7-10.8-9.6c-0.8-3.8-0.3-8.5-2.4-11.1c-2-2.5-6.8-2.6-10.2-3.9c-2-0.7-3.9-1.7-5.8-2.6
	c-1.9-0.9-3.8-2-5.8-3c-3,2.2-6,4.5-9,6.6c-5.3,3.7-10.6,3.3-15.3-1.1c-2.6-2.5-5.2-5.1-7.7-7.7c-4-4.3-4.4-9.5-1.2-14.4
	c2.1-3.2,6-6.2,6.3-9.5c0.3-3.3-2.9-6.9-4.4-10.4c-1.1-2.5-2.3-5.1-2.7-7.7c-0.6-3.7-2.6-4.9-6-5.1c-2.4-0.1-4.7-0.6-7-1
	c-5.6-1-9.3-5.2-9.4-10.9c-0.1-3.6-0.1-7.2,0-10.9c0.1-6.4,3.6-11.4,9.9-11.6c8.5-0.2,13.1-3.4,14.6-11.9c0.6-3.4,2.7-6.7,4.6-9.8
	c1.2-2,1-3.3-0.4-5c-1.9-2.3-3.7-4.7-5.3-7.2c-3.2-4.8-2.9-9.9,1-14.1c2.7-3,5.5-5.8,8.5-8.5c4.2-3.9,9.3-4.2,14.1-1
	c3.3,2.2,6.5,4.7,9,6.5c7.4-2.9,14.3-5.4,21.1-8.2c1.1-0.4,2.1-1.9,2.4-3.1c0.8-3.1,0.9-6.4,1.6-9.6c1.1-5.3,4.9-8.5,10.2-8.7
	c4.2-0.2,8.5-0.2,12.7,0c5.1,0.2,9,3.5,10,8.5c0.7,3.2,1.2,6.4,1.5,9.6c0.2,2,1,2.9,3,3.7c6,2.3,11.9,5,18,7.3
	c1.1,0.4,2.8,0.3,3.8-0.3c2.8-1.7,5.2-3.9,7.9-5.6c4.6-3.1,9.7-2.8,13.8,1c3.1,2.8,6,5.7,8.7,8.7c3.7,4.1,4,9.1,1,13.8
	c-1.7,2.6-3.6,5.1-5.5,7.6c-1.3,1.6-1.3,2.8-0.4,4.7c2.7,5.8,4.9,11.7,7.5,17.5c0.5,1.2,1.9,2.4,3.2,2.8c2.2,0.7,4.7,0.9,7,1.2
	c7.4,1.1,10.2,3.7,11.8,11.2c10.9,0,21.8,0,33.3,0c0-1.5,0-3,0-4.4c0-21.6,0-43.2,0-64.9c0-10.6,4.8-15.4,15.3-15.4
	c6.4,0,12.7,0.1,19.1-0.1c1,0,2.8-0.6,3-1.3C302.8,8.4,310.3,2.9,320.2,0C323,0,325.7,0,328.5,0z M188.1,45.9
	c-3.6,2.6-7,5.2-10.4,7.7c-4.6,3.4-5.5,3.2-10.4,0.6c-5.7-3-11.5-6.7-17.7-7.8c-8.6-1.5-11.2-6-11.7-13.9c-0.6-8.2-1-8.1-9.2-8
	c-2.2,0-3.4,0.5-3.6,3c-0.3,3.8-1.1,7.7-1.6,11.5c-0.5,3.2-2.2,5.2-5.4,5.8c-8.7,1.7-16.7,5-24,9.9c-2.7,1.8-5.3,1.8-7.9-0.2
	c-3.9-2.9-7.8-5.7-11.4-8.4c-2.9,2.6-5.5,5-8.4,7.6c2.9,3.9,5.5,7.7,8.3,11.3c2.3,3,2.5,5.7,0.3,8.9c-4.8,7.1-8,15-9.7,23.4
	c-0.7,3.4-2.5,5.2-6,5.6c-4.8,0.6-9.5,1.5-14.2,2.3c0,3.9,0,7.3,0,11.1c4.7,0.7,9.4,1.5,14.1,2.2c3.4,0.4,5.4,2,6.1,5.5
	c1.7,8.5,4.9,16.5,9.8,23.7c2,3,1.9,5.7-0.3,8.6c-2.9,3.7-5.6,7.6-8.3,11.2c2.8,2.8,5.4,5.3,8.1,7.9c3.6-2.6,7.4-5.3,11-8.1
	c3-2.3,5.6-2.1,8.9-0.4c5.9,3.1,11.9,7,18.3,8.2c8.6,1.5,11.2,6,11.8,13.8c0.6,8.5,1,8.4,9.4,8.2c2.1,0,3.1-0.6,3.3-2.9
	c0.3-3.6,1.1-7.2,1.5-10.7c0.4-4,2.3-6.3,6.4-7.1c8.2-1.5,15.8-4.7,22.7-9.4c3.3-2.2,6.1-2.1,9.2,0.4c3.6,2.8,7.4,5.5,10.7,8
	c2.9-2.7,5.5-5.2,8.3-7.7c-2.9-3.9-5.5-7.6-8.4-11.3c-2.3-3-2.4-5.8-0.2-8.9c4.7-7,7.9-14.7,9.5-23c0.8-3.8,2.7-5.6,6.5-6
	c4.6-0.6,9.2-1.4,13.8-2.1c0-4,0-7.4,0-11.1c-4.9-0.8-9.6-1.6-14.4-2.2c-3.3-0.4-5.1-2.2-5.7-5.4c-1.7-8.5-4.9-16.5-9.8-23.7
	c-2-3-1.9-5.7,0.3-8.6c2.9-3.7,5.6-7.6,8.3-11.2C193.3,51.1,190.8,48.6,188.1,45.9z M339,25.9c0.1-8-6.4-14.6-14.4-14.6
	c-8,0-14.5,6.5-14.5,14.5c0,7.8,6.3,14.3,14.2,14.4C332.2,40.4,338.9,33.8,339,25.9z M324.4,125.2c7.9,0.1,14.5-6.5,14.6-14.4
	c0-8-6.6-14.6-14.5-14.5c-7.8,0-14.2,6.4-14.4,14.3C309.9,118.4,316.4,125.1,324.4,125.2z M324.4,181.3c-8.1,0.1-14.4,6.6-14.3,14.6
	c0.2,7.9,6.5,14.1,14.4,14.1c8,0,14.5-6.4,14.5-14.5C338.9,187.6,332.4,181.2,324.4,181.3z"/>
<path d="M384,284.2c-2.2,8.7-8.1,13.8-15.8,17.9c-16.3,8.5-32.3,17.4-48.4,26.3c-3,1.7-5.9,2.3-8.3-0.7c-2.5-3.1-1.5-6.7,2.5-8.9
	c14.7-8,29.4-16,44.1-24c3-1.6,5.9-3.2,8.9-4.9c5.4-3.1,7.3-9,4.6-14.1c-2.8-5.2-8.9-7-14.5-3.9c-17.8,9.8-35.5,20-53.4,29.5
	c-35.5,18.8-73.3,25.2-113.2,19.9c-11.4-1.5-22.8-2.6-34.2-4.2c-2.1-0.3-4.6-1-6-2.4c-3.3-3.3-0.9-8.3,4.4-9.1
	c8.8-1.3,17.6-2.2,26.4-3.4c22.3-2.8,44.6-5.6,66.9-8.5c5.7-0.7,9-3.8,9.6-8.4c0.6-4.4-1.4-8.5-5.5-10.1c-2-0.8-4.4-1-6.6-1
	c-23.2-0.1-46.5,0-69.7-0.1c-2.3,0-4.7-0.4-6.9-1.2c-23.7-8.3-47.5-9.8-71.7-2.2c-2.7,0.8-5.1,1.2-7.3-1c-3-3.1-1.6-8.2,3-9.4
	c8.5-2.1,17-4.4,25.6-5.3c17.6-1.9,34.9,0.6,51.7,6.3c1.5,0.5,3.7,0.1,5.2-0.6c22.2-11.5,44.5-22.6,66.2-34.9
	c14.4-8.1,29.9-1.8,32.7,15c3-1.6,6-3.2,8.9-4.7c12.9-6.8,26.2-0.5,29.1,13.9c0.1,0.3,0.3,0.7,0.5,1.4c3.7-1.9,7.5-3.6,10.9-5.7
	c14.1-8.7,29.3,0.9,30.6,13.8c0,0.2,0.3,0.4,0.3,0.4c3.2-0.3,6.3-1.1,9.3-0.9c9.4,0.6,16.6,6.6,19.4,15.6c0.2,0.7,0.5,1.4,0.8,2
	C384,279.2,384,281.7,384,284.2z M203.7,310.7c0,0.1,0,0.3,0,0.4c1.6,0.1,3.2,0.4,4.7,0.4c21.6,1.1,42.6-1.9,63.1-8.6
	c24.3-8,45.5-22.2,67.6-34.3c1.7-1,3-3.6,3.5-5.8c0.8-3.1-0.6-5.9-3.4-7.7c-3-2-6.1-1.7-9.2-0.1c-19.7,10.4-39.5,20.8-59.2,31.3
	c-1.2,0.7-2.4,2.1-2.8,3.5c-2.9,8.3-8.5,13.5-17.2,14.7C235.1,306.8,219.4,308.7,203.7,310.7z M197.1,262.2c0.1,0.3,0.2,0.5,0.3,0.8
	c11.7,0,23.4,0,35.1,0c0.6,0,1.3-0.2,1.8-0.4c8.1-4.4,16.3-8.6,24.3-13.2c3.3-1.9,4.5-5.3,3.7-9.1c-0.8-3.8-3.4-6.3-7.2-6.6
	c-2.2-0.2-4.7,0.7-6.7,1.7c-16.3,8.4-32.5,16.9-48.7,25.5C198.8,261.2,198,261.7,197.1,262.2z M256.1,263.5c4,3.9,7.8,7.5,11.9,11.5
	c9.2-4.9,19.2-10,29-15.4c3.9-2.2,5-7,2.9-10.7c-2-3.7-6.4-5.4-10.3-3.4C278.3,251.4,267.1,257.6,256.1,263.5z"/>
<path d="M0,290.2c1.7-3.1,4.4-3.9,7.8-3.9c11.2,0.2,22.5,0.1,33.7,0c1.7,0,3.6-0.8,5.1-1.7c7.5-4.6,14.9-9.5,22.5-14.1
	c3.8-2.3,7-1.5,8.7,1.6c1.7,3.1,0.4,5.9-3.3,8.3c-8,5.1-15.9,10.4-23.9,15.4c-1.8,1.1-4.1,1.8-6.2,1.8c-10.9,0.2-21.7,0.1-32.9,0.1
	c0,21,0,41.8,0,63.2c1.2,0,2.5,0,3.8,0c31.1-1.2,61.8,2.9,92.7,5.6c23.1,2,46.3,4.4,69.4,6.1c19,1.3,37.1-3.3,54.1-11.2
	c20-9.3,39.4-19.9,59.1-29.9c1.1-0.6,2.2-1.3,3.3-1.7c2.9-1.1,5.2-0.1,6.7,2.5c1.5,2.5,0.9,4.8-1,6.8c-0.4,0.4-1,0.8-1.5,1.1
	c-23.2,12.7-46,26.2-71,35.2c-11.2,4-22.6,7.1-34.5,8.1c-0.7,0.1-1.4,0.4-2.1,0.6c-5.5,0-11,0-16.5,0c-4.2-0.5-8.4-1.1-12.6-1.5
	c-23.8-2.2-47.7-4.4-71.5-6.4c-21.5-1.8-42.9-4.7-64.5-4c-6,0.2-12-0.1-18,0.1c-3.4,0.1-5.8-1-7.4-4C0,342.2,0,316.2,0,290.2z"/>
<path d="M88.8,109.5c0.4-16.9,11.1-32.3,27.2-38.3c16.3-6.1,34.4-2,46.1,10.6c11.9,12.8,14.9,31.3,7.4,47c-0.8,1.7-2.1,3.9-3.6,4.5
	c-1.8,0.6-4.5,0.3-6.1-0.8c-2.5-1.6-2.4-4.4-1.1-7.1c2.8-5.5,4-11.2,3.5-17.4c-1.3-15.8-14.6-28.2-30.5-28.4
	c-15.6-0.2-29.5,11.7-31.2,26.8c-1.9,16.6,8.2,31.3,24,34.7c6.7,1.5,13.1,0.7,19.4-1.9c4-1.6,7.2-0.4,8.4,2.9c1,3.1-0.3,5.7-4,7.4
	c-16.9,7.9-38.6,2.5-50.3-12.5C91.9,129.1,88.8,120.2,88.8,109.5z"/>
</svg>
